<?xml version="1.0" ?><svg id="Layer_1" style="enable-background:new 0 0 120 120;" version="1.1" viewBox="0 0 120 120" xml:space="preserve" xmlns="http://www.w3.org/2000/svg" xmlns:xlink="http://www.w3.org/1999/xlink"><style type="text/css">
	.st0{fill:#F4F4F4;}
	.st1{fill:#66BCFF;}
	.st2{fill:#FFFFFF;}
	.st3{fill:#DDEEFF;}
	.st4{fill:#FFDEA8;}
	.st5{fill:#FFC466;}
	.st6{fill:#ADF299;}
	.st7{fill:#C9A677;}
	.st8{fill:#92E87E;}
</style><g><g><path class="st0" d="M28.1,96.8L15.2,41c-0.1-0.4,0.2-0.8,0.6-0.9l75.5-17.5c0.4-0.1,0.8,0.2,0.9,0.6L105.2,79    c0.1,0.4-0.2,0.8-0.6,0.9L29.1,97.4C28.7,97.5,28.2,97.2,28.1,96.8z"/><g><rect class="st1" height="51.5" transform="matrix(0.9742 -0.2256 0.2256 0.9742 -11.9843 15.1276)" width="71.8" x="24.3" y="34.2"/></g></g><g><path class="st2" d="M14.8,86.2l3.5-57.1c0-0.4,0.4-0.8,0.8-0.7L96.5,33c0.4,0,0.8,0.4,0.7,0.8l-3.5,57.1c0,0.4-0.4,0.8-0.8,0.7    L15.5,87C15.1,87,14.8,86.6,14.8,86.2z"/><g><rect class="st3" height="71.8" transform="matrix(6.034829e-02 -0.9982 0.9982 6.034829e-02 -7.2698 112.2787)" width="51.5" x="30.2" y="24.1"/><path class="st4" d="M62.9,86.2l-44.3-2.7l1.1-18.6c6.3-0.7,12.6-1.2,18.8-0.2c3.9,0.6,7.8,1.9,11.7,2.6c0.7,1.5,0.5,3.5-0.5,4.8     c-1.2,1.7-3.4,2.5-5.4,2.5c-1,0-2-0.2-3-0.1c-1,0.1-2,0.6-2.4,1.5c-0.4,1.1,0.2,2.3,1.2,3c1,0.7,2.2,0.8,3.3,1     c3.2,0.5,6.4,1,9.7,1.4c2.6,0.4,5.3,0.8,7.5,2.3C61.4,84.6,62.2,85.3,62.9,86.2z"/><circle class="st5" cx="75.4" cy="67.4" r="7.3"/><g><path class="st6" d="M38,46.9L38,46.9c0.1,0.3,0.4,0.4,0.5,0.1c0.5-1,1.2-1.9,2.1-2.5c1.1-0.8,2.4-0.9,3.5-0.5      c0.2,0.1,0.3-0.2,0.2-0.4C43,41.7,41.1,41,39.6,42c-0.5,0.3-0.9,0.8-1.3,1.4C37.7,44.3,37.6,45.7,38,46.9z"/><path class="st6" d="M37.1,46.5L37.1,46.5c-0.1-0.1-0.2-0.3-0.1-0.4c0.4-0.6,0.7-1.4,0.9-2.3c0.2-1.2,0.1-2.3-0.1-3.3      c0-0.1,0.1-0.3,0.2-0.2c1,0.8,1.4,2.4,1.2,4.1c-0.1,0.5-0.3,1-0.5,1.4C38.3,46.4,37.7,46.7,37.1,46.5z"/><path class="st7" d="M28.6,67.6c-0.1,1.6-0.1,3.3,0,4.8l6.1,0.4c-0.7-3-1.1-6.3-0.8-9.9c0.4-6.3,2.3-11.7,5-15.2l-1.7-0.1      C33.2,51.5,29,59.7,28.6,67.6z"/><path class="st8" d="M37.2,49L37.2,49c0,0.4,0.3,0.7,0.6,0.5c1.2-0.9,2.7-1.4,4.2-1.4c2,0,3.8,0.8,5.2,2.2      c0.2,0.2,0.5-0.1,0.5-0.4c-0.8-3.4-3.1-5.7-5.9-5.7c-0.9,0-1.8,0.3-2.5,0.7C38,45.6,37.2,47.2,37.2,49z"/><path class="st8" d="M36.6,50L36.6,50c-0.3,0.3-0.7,0.1-0.6-0.3c0.1-1.7-0.1-3.5-0.7-5c-0.8-1.9-2.2-3.2-3.8-3.8      c-0.3-0.1-0.2-0.5,0.1-0.7c2.8-1.1,5.5-0.2,6.7,2.6c0.4,0.9,0.5,1.9,0.5,2.9C38.8,47.2,37.9,48.9,36.6,50z"/><path class="st6" d="M36.2,49.1L36.2,49.1c-0.2,0.4-0.1,1,0.2,0.9c1.4,0,2.8,0.5,4,1.7c1.5,1.4,2.5,3.6,2.9,6      c0.1,0.4,0.5,0.3,0.5-0.1c1-3.9,0.4-8-1.8-9.9c-0.7-0.6-1.5-1-2.3-1.1C38.5,46.3,37.1,47.4,36.2,49.1z"/><path class="st6" d="M36.7,49.4L36.7,49.4c0,0.5-0.4,0.8-0.7,0.5c-1.2-1.2-2.7-1.9-4.4-2.1c-2.1-0.2-4.2,0.6-5.8,2.1      c-0.2,0.2-0.6-0.1-0.4-0.5c1.2-3.8,4-6.4,6.9-6.1c1,0.1,1.9,0.5,2.6,1C36.2,45.3,36.9,47.3,36.7,49.4z"/></g><path class="st1" d="M91.5,67.5l-1.2,20.4l-27.4-1.7c-0.7-0.9-1.5-1.7-2.4-2.3c-2.2-1.5-4.9-1.9-7.5-2.3     c-3.2-0.5-6.4-0.9-9.7-1.4c-1.2-0.2-2.4-0.4-3.3-1c-1-0.7-1.6-1.9-1.2-3c0.4-0.9,1.4-1.4,2.4-1.5c1-0.1,2,0,3,0.1     c2.1,0,4.2-0.8,5.4-2.5c1-1.4,1.3-3.3,0.5-4.8c0.4,0.1,0.8,0.2,1.2,0.2c4.7,0.8,9.5,0.7,14.3,0.6c5.5-0.1,11.1-0.2,16.6-0.3     C85.4,67.8,88.5,67.7,91.5,67.5z"/></g></g></g></svg>